<svg xmlns="http://www.w3.org/2000/svg" xmlns:xlink="http://www.w3.org/1999/xlink" width="1451.09" height="1248.859" viewBox="0 0 1451.09 1248.859">
  <defs>
    <linearGradient id="linear-gradient" x1="0.5" x2="0.5" y2="1" gradientUnits="objectBoundingBox">
      <stop offset="0" stop-color="#558b8e"/>
      <stop offset="1" stop-color="#122728"/>
    </linearGradient>
  </defs>
  <g id="Path_2" data-name="Path 2" transform="translate(1281.496 10129.359)">
    <path id="Path_2-2" data-name="Path 2" d="M.459.979C-9.99,12.932,160.658,101.5,247.043,224.367c31.5,44.807-28.04,64.138-10.808,111.96,11.841,32.861,47.333,17.632,68.953,49.4,27.7,40.7-6.6,67.9,29.682,95.544,38.273,29.159,77.289-14.414,119.431,18.059C638.434,641.218,652.744,1248,652.744,1248H1450s-61.51-353.753-259.01-606.782c-101.731-130.334-181.556-66.167-339.452-159.943-98.786-58.67-69.556-109.436-173.911-144.948-108.613-36.962-141.683,49.415-243.739,17.681-48.124-14.964-22.139-70.959-56.621-111.077-34.042-39.607-41.74-35.894-88.71-66.054C147.123,86.061,10.767-10.813.459.979Z" transform="translate(-1281 -10129)" fill="#499296"/>
    <path id="Path_2-3" data-name="Path 2" d="M.459.979C-9.99,12.932,160.658,101.5,247.043,224.367c31.5,44.807-28.04,64.138-10.808,111.96,11.841,32.861,47.333,17.632,68.953,49.4,27.7,40.7-6.6,67.9,29.682,95.544,38.273,29.159,77.289-14.414,119.431,18.059C638.434,641.218,652.744,1248,652.744,1248H1450s-61.51-353.753-259.01-606.782c-101.731-130.334-181.556-66.167-339.452-159.943-98.786-58.67-69.556-109.436-173.911-144.948-108.613-36.962-141.683,49.415-243.739,17.681-48.124-14.964-22.139-70.959-56.621-111.077-34.042-39.607-41.74-35.894-88.71-66.054C147.123,86.061,10.767-10.813.459.979Z" transform="translate(-1281 -10129)" stroke="#4c979b" stroke-miterlimit="10" stroke-width="1" fill="url(#linear-gradient)"/>
  </g>
</svg>
