<svg xmlns="http://www.w3.org/2000/svg" width="108.445" height="110.401" viewBox="0 0 108.445 110.401">
  <path id="Path_4" data-name="Path 4" d="M4.338,59.8C-.158,53.195-.737,46.035.7,38.6c1.76-9.129,7.137-19.427,13.437-24.9,2.4-2.081,4.27-3.568,8.386-6.743,1.838-1.418,2.637-2.038,3.59-2.8A19.209,19.209,0,0,1,56.695,14.582a24.707,24.707,0,0,1,2.6-.219A21.887,21.887,0,0,1,78.715,24.81c2.629,4.21,3.772,8.748,4.176,14.06a33.351,33.351,0,0,1-1.849,13.954A19.2,19.2,0,0,1,98.578,86.962C95.988,88.4,93.9,89.6,89.155,92.331c-9.977,5.749-14.521,8.278-20.508,11.268-4.541,2.268-8.317,3.57-15.191,5.574a31.642,31.642,0,0,1-10.934,1.157c-5.4-.354-10.257-1.829-14.914-6.542a40.32,40.32,0,0,1-7.2-10.194,28.392,28.392,0,0,1-3.024-10.857,34.528,34.528,0,0,1,1.365-13.215A22.839,22.839,0,0,1,4.338,59.8Z" fill="#d3eaec"/>
</svg>
