<svg xmlns="http://www.w3.org/2000/svg" width="109.204" height="110.401" viewBox="0 0 109.204 110.401">
  <g id="Group_2" data-name="Group 2" transform="translate(-184 -4889.799)">
    <path id="Path_4" data-name="Path 4" d="M4.338,59.8C-.158,53.195-.737,46.035.7,38.6c1.76-9.129,7.137-19.427,13.437-24.9,2.4-2.081,4.27-3.568,8.386-6.743,1.838-1.418,2.637-2.038,3.59-2.8A19.209,19.209,0,0,1,56.695,14.582a24.707,24.707,0,0,1,2.6-.219A21.887,21.887,0,0,1,78.715,24.81c2.629,4.21,3.772,8.748,4.176,14.06a33.351,33.351,0,0,1-1.849,13.954A19.2,19.2,0,0,1,98.578,86.962C95.988,88.4,93.9,89.6,89.155,92.331c-9.977,5.749-14.521,8.278-20.508,11.268-4.541,2.268-8.317,3.57-15.191,5.574a31.642,31.642,0,0,1-10.934,1.157c-5.4-.354-10.257-1.829-14.914-6.542a40.32,40.32,0,0,1-7.2-10.194,28.392,28.392,0,0,1-3.024-10.857,34.528,34.528,0,0,1,1.365-13.215A22.839,22.839,0,0,1,4.338,59.8Z" transform="translate(184.759 4889.799)" fill="#d3eaec"/>
    <g id="paintbrush" transform="translate(184 4897)">
      <path id="XMLID_503_" d="M62.081,37.344a3.236,3.236,0,0,0,0-4.576l-4.856-4.856a3.237,3.237,0,0,0-4.107-.388l-10.211,6.94,6.9-10.28a3.236,3.236,0,0,0-.4-4.091L38.871,9.557a3.235,3.235,0,0,0-3.692-.627l-1.821.877.872-1.935a3.236,3.236,0,0,0-.662-3.618L30.261.948a3.236,3.236,0,0,0-4.576,0L0,26.632l36.4,36.4Z" transform="translate(32.948 0)" fill="#d58393"/>
      <path id="XMLID_1199_" d="M3.417,61.145a11.7,11.7,0,0,1,0-16.526c.635-.634,2.566-2.567,23.291-15.777a6.305,6.305,0,0,0,1.076-9.778l-7.053-7.053a3.235,3.235,0,0,1,0-4.576L28.166,0l36.4,36.4-7.436,7.436a3.235,3.235,0,0,1-4.576,0L45.5,36.778a6.315,6.315,0,0,0-9.778,1.076C22.51,58.577,20.577,60.51,19.942,61.145a11.7,11.7,0,0,1-16.525,0Z" transform="translate(0 31.415)" fill="#499296"/>
    </g>
  </g>
</svg>
