<svg xmlns="http://www.w3.org/2000/svg" width="122.609" height="113.603" viewBox="0 0 122.609 113.603">
  <g id="Group_3" data-name="Group 3" transform="translate(-968.697 -4881.699)">
    <path id="Path_6" data-name="Path 6" d="M33.1,59.261c-.5.18-3.989,1.437-4.893,1.758-1.779.632-3.078,1.072-4.274,1.437a29,29,0,0,1-5.045,1.136A16.192,16.192,0,0,1,7.156,60.968,15.913,15.913,0,0,1,.072,45.891,21.039,21.039,0,0,1,1.76,39.428a93.934,93.934,0,0,1,4.319-8.616,36.308,36.308,0,0,1,8-10.712c4.076-3.644,7.381-6.228,14.772-11.751,3.427-2.561,4.923-3.692,6.725-5.1A15.309,15.309,0,0,1,59.688,11,46.522,46.522,0,0,1,74.262,4.956,16.411,16.411,0,0,1,81.78,4.88,15.847,15.847,0,0,1,93.791,23.8a18.581,18.581,0,0,1-1.348,4.011,39.523,39.523,0,0,1-4.507,7.163l-.4.544c-2.564,3.451-2.191,2.943-2.392,3.26-2.171,3.42-4.107,6.365-6.813,10.356,6.219-2.489,11.883-4.632,14.607-5.391-.079.022-.083.023-.037.007q.192-.066.535-.2c.235-.089.509-.195.871-.337l1.1-.432.524-.2a33.168,33.168,0,0,1,7.628-2.265,18.17,18.17,0,0,1,4.243-.164,15.937,15.937,0,0,1,14.681,13.866,16.3,16.3,0,0,1-.887,7.752c-3.595,10-7.642,16.9-17.4,31.435-4.354,6.484-6.2,9.331-8.259,12.835a15.3,15.3,0,0,1-26.4-15.48c1.237-2.11,2.375-3.963,3.79-6.164-3.055,1.315-5.415,2.343-5.713,2.487a31,31,0,0,0-4.939,3.569l-.658.527A53.705,53.705,0,0,1,52.979,97.2a27.918,27.918,0,0,1-15.71,3.415,16.448,16.448,0,0,1-14.359-10.4,16.842,16.842,0,0,1,.106-12.919,36.033,36.033,0,0,1,5.309-8.966c.229-.308.466-.625.73-.975,2.581-3.421,2.472-3.274,2.7-3.639,1.086-1.768,2.126-3.428,3.213-5.124Q34.039,58.925,33.1,59.261Z" transform="translate(968.697 4881.699)" fill="#d3eaec"/>
    <g id="paint-roller" transform="translate(989 4896)">
      <path id="Path" d="M26.423,0H1.537A1.537,1.537,0,0,0,0,1.536V4.1A2.794,2.794,0,0,0,.819,6.078l4.532,4.535-3.1,15.525a11.965,11.965,0,1,0,23.465,0l-3.1-15.525L27.14,6.078a1.978,1.978,0,0,0,.782-1.6V2.468C27.922,1.62,27.272,0,26.423,0Z" transform="translate(28.023 55.552)" fill="#499296"/>
      <path id="Path-2" data-name="Path" d="M75.491,11.184h-2.8v-2.8A8.377,8.377,0,0,0,64.307,0H8.388A8.377,8.377,0,0,0,0,8.388V19.572a8.377,8.377,0,0,0,8.388,8.388h2.8V39.143a5.592,5.592,0,0,0,11.184,0V30.755a2.8,2.8,0,0,1,5.592,0v2.8a5.592,5.592,0,0,0,11.184,0V27.959H64.307a8.377,8.377,0,0,0,8.388-8.388v-2.8h2.8a2.769,2.769,0,0,1,2.8,2.8v6.99a2.819,2.819,0,0,1-2.013,2.684L45.239,38.081a8.49,8.49,0,0,0-6.1,8.052v3.613h5.592V46.133a2.819,2.819,0,0,1,2.013-2.684l31.035-8.835a8.49,8.49,0,0,0,6.1-8.052v-6.99A8.377,8.377,0,0,0,75.491,11.184Z" transform="translate(0.061)" fill="#d58393"/>
    </g>
  </g>
</svg>
