<svg xmlns="http://www.w3.org/2000/svg" width="95.814" height="95.813" viewBox="0 0 95.814 95.813">
  <g id="paint-palette" transform="translate(0 -0.001)">
    <path id="Path" d="M28.257,11.228a11.228,11.228,0,0,0-22.456,0v5.614a5.947,5.947,0,0,1-5.8,5.8v5.614H11.415A17.021,17.021,0,0,0,28.257,11.228Z" transform="translate(0 67.556)" fill="#d58393"/>
    <path id="Path-2" data-name="Path" d="M2.082.1A2.807,2.807,0,1,0,5.519,2.081,2.8,2.8,0,0,0,2.082.1Z" transform="translate(44.901 23.408)" fill="#d58393"/>
    <path id="Path-3" data-name="Path" d="M.122,5.525A2.807,2.807,0,0,0,1.577.1h0A2.059,2.059,0,0,0,0,.233Q.048,2.771.066,5.5c.021.006.035.022.056.028Z" transform="translate(30.981 39.282)" fill="#d58393"/>
    <path id="Path-4" data-name="Path" d="M5.518,2.079a2.807,2.807,0,1,0-1.985,3.44,2.805,2.805,0,0,0,1.985-3.44Z" transform="translate(56.525 66.79)" fill="#d58393"/>
    <path id="Path-5" data-name="Path" d="M4.792,4.795a2.809,2.809,0,1,0-3.969,0A2.814,2.814,0,0,0,4.792,4.795Z" transform="translate(66.593 29.22)" fill="#d58393"/>
    <path id="Shape" d="M16.327,83.594A8.451,8.451,0,0,1,9.91,73.279c.312-1.4,1.1-6.3-1.868-10.474a14.791,14.791,0,0,0-6.589-4.847c.194-4.242.3-8.684.329-13.174.269.026.538.107.807.107A8.421,8.421,0,1,0,1.575,28.109,181.592,181.592,0,0,0,0,8.63C6.747,4,15.212.357,24.432.024,45.6-.773,66.364,17.942,66.56,41.941A42.245,42.245,0,0,1,16.327,83.594Z" transform="translate(29.252 5.629)" fill="#499296"/>
    <path id="Path-6" data-name="Path" d="M3.535.1A2.807,2.807,0,1,0,5.519,3.534,2.805,2.805,0,0,0,3.535.1Z" transform="translate(72.404 50.911)" fill="#d58393"/>
    <path id="Path-7" data-name="Path" d="M16.808,50.713c.008-.939.034-1.864.034-2.807C16.842,26.138,15.381,0,8.421,0S0,26.138,0,47.906c0,.943.026,1.868.034,2.807Z" transform="translate(8.608 0.001)" fill="#d58393"/>
    <path id="Path-8" data-name="Path" d="M8.315,5.614a16.631,16.631,0,0,1,8.036,2.133c.121-2.519.214-5.114.279-7.747H0C.065,2.633.157,5.228.279,7.747A16.629,16.629,0,0,1,8.315,5.614Z" transform="translate(8.715 56.328)" fill="#d58393"/>
  </g>
</svg>
