<svg xmlns="http://www.w3.org/2000/svg" width="95.977" height="95.977" viewBox="0 0 95.977 95.977">
  <g id="paintbrush" transform="translate(0)">
    <path id="XMLID_503_" d="M62.081,37.344a3.236,3.236,0,0,0,0-4.576l-4.856-4.856a3.237,3.237,0,0,0-4.107-.388l-10.211,6.94,6.9-10.28a3.236,3.236,0,0,0-.4-4.091L38.871,9.557a3.235,3.235,0,0,0-3.692-.627l-1.821.877.872-1.935a3.236,3.236,0,0,0-.662-3.618L30.261.948a3.236,3.236,0,0,0-4.576,0L0,26.632l36.4,36.4Z" transform="translate(32.948 0)" fill="#d58393"/>
    <path id="XMLID_1199_" d="M3.417,61.145a11.7,11.7,0,0,1,0-16.526c.635-.634,2.566-2.567,23.291-15.777a6.305,6.305,0,0,0,1.076-9.778l-7.053-7.053a3.235,3.235,0,0,1,0-4.576L28.166,0l36.4,36.4-7.436,7.436a3.235,3.235,0,0,1-4.576,0L45.5,36.778a6.315,6.315,0,0,0-9.778,1.076C22.51,58.577,20.577,60.51,19.942,61.145a11.7,11.7,0,0,1-16.525,0Z" transform="translate(0 31.415)" fill="#499296"/>
  </g>
</svg>
