<svg xmlns="http://www.w3.org/2000/svg" width="118.173" height="107.9" viewBox="0 0 118.173 107.9">
  <path id="Path_5" data-name="Path 5" d="M8.968,25.353c3.158-3.039,5.976-4.876,11.328-7.92l.783-.445.731-.416a31.539,31.539,0,0,0,3.31-2.05A59.025,59.025,0,0,1,38.8,6.01a66.659,66.659,0,0,1,8.744-3.047C48,2.835,53.659,1.279,55.495.737A17.911,17.911,0,0,1,77.472,12.006c12.245.479,23.8,7.655,31.691,20.176,12.548,19.908,12.713,47.335-4.1,63.117-17.353,16.284-42.168,15.941-64.989,3.812C19.947,88.416,3.915,69.85.558,50.681L0,47.5l.613-3.3C.507,36.815,3.734,30.389,8.968,25.353Z" fill="#f8d7dd"/>
</svg>
